Coordinates
version=1
nRows=24
nColumns=22
inDegrees=yes

Units are S.I. units (second, meters, Newtons, ...)
If the header above contains a line with 'inDegrees', this indicates whether rotational values are in degrees (yes) or radians (no).

endheader
time	pelvis_tilt	pelvis_list	pelvis_rotation	pelvis_tx	pelvis_ty	pelvis_tz	hip_flexion_r	hip_adduction_r	hip_rotation_r	knee_angle_r	ankle_angle_r	subtalar_angle_r	hip_flexion_l	hip_adduction_l	hip_rotation_l	knee_angle_l	ankle_angle_l	subtalar_angle_l	lumbar_extension	lumbar_bending	lumbar_rotation
      1.96000000	     -5.12265723	     -2.42819034	    114.89119147	     -0.67121985	      0.99584325	      0.31327062	     -0.39796928	     -7.47045271	     -7.64869048	    -49.52586675	      0.30611467	      6.27236376	     16.40209755	      2.77365948	      3.50685577	    -18.43573219	      5.08143065	     10.42255337	     -0.21531052	     -8.37065722	      6.15961387
      1.97000000	     -5.50546319	     -2.60353684	    114.02609469	     -0.67588988	      0.99648581	      0.30664951	      1.14826836	     -8.65915292	     -8.19759629	    -51.76324289	      0.68466152	      5.12881955	     15.81811193	      3.17121141	      2.67203603	    -18.33730180	      5.37260088	      9.90589565	     -0.32040655	     -8.75075099	      6.02053669
      1.98000000	     -5.79407056	     -2.71541907	    113.16977065	     -0.68012908	      0.99716247	      0.30018063	      2.73283146	     -9.58413408	     -8.50496501	    -53.84927020	      1.27339046	      3.91321772	     15.23746616	      3.45427573	      1.88538307	    -18.22640804	      5.67009502	      9.40043798	     -0.48102602	     -9.02227061	      5.82699573
      1.99000000	     -5.98487016	     -2.77123221	    112.32387836	     -0.68393533	      0.99788746	      0.29385231	      4.35265687	    -10.22355209	     -8.58883680	    -55.76707595	      1.94299474	      2.74149646	     14.66796742	      3.61768712	      1.12963028	    -18.11144353	      5.95309703	      8.94566269	     -0.68703659	     -9.18700842	      5.57887457
      2.00000000	     -6.06751841	     -2.76731081	    111.50206575	     -0.68734654	      0.99868272	      0.28764293	      5.97881086	    -10.55959362	     -8.50879030	    -57.48948710	      2.62085349	      1.66770215	     14.10325006	      3.65248393	      0.43048618	    -17.99620701	      6.23197707	      8.53665122	     -0.93125492	     -9.23449173	      5.28199150
      2.01000000	     -6.07047534	     -2.70898945	    110.68392583	     -0.69037113	      0.99956613	      0.28150658	      7.59437259	    -10.62729756	     -8.28002203	    -59.01552458	      3.22093373	      0.88576067	     13.52366838	      3.57821650	     -0.27594781	    -17.86724445	      6.48580643	      8.24487878	     -1.20939683	     -9.19849481	      4.97194991
      2.02000000	     -5.97117214	     -2.62761887	    109.93915073	     -0.69315907	      1.00044819	      0.27552325	      9.20181666	    -10.45357133	     -8.05031243	    -60.33895530	      3.68866959	      0.17438089	     12.99028032	      3.41040565	     -0.85845420	    -17.77740993	      6.79202763	      7.93804692	     -1.49114565	     -9.06140972	      4.59112831
      2.03000000	     -5.82397448	     -2.50396396	    109.22690083	     -0.69572088	      1.00141682	      0.26954410	     10.73861721	    -10.10664715	     -7.81622735	    -61.44423630	      4.05295156	     -0.23930416	     12.41742369	      3.17494491	     -1.46255830	    -17.65045889	      7.07555450	      7.73038634	     -1.79409646	     -8.87123140	      4.17714830
      2.04000000	     -5.64102180	     -2.39050354	    108.57258063	     -0.69815702	      1.00236250	      0.26361595	     12.24678350	     -9.66083826	     -7.64736403	    -62.35568818	      4.31101488	     -0.49863363	     11.85657778	      2.91958696	     -1.99724559	    -17.49889113	      7.36664459	      7.55023775	     -2.06776645	     -8.65665573	      3.72945955
      2.05000000	     -5.44919954	     -2.27404729	    107.96884258	     -0.70050300	      1.00330434	      0.25772362	     13.69515028	     -9.17237012	     -7.56703105	    -63.07600203	      4.49837318	     -0.59996049	     11.28128894	      2.66364872	     -2.50472226	    -17.31751481	      7.64247689	      7.40943226	     -2.33644696	     -8.43486871	      3.25695982
      2.06000000	     -5.27162281	     -2.14146709	    107.42211413	     -0.70282808	      1.00426057	      0.25180117	     15.04144891	     -8.70225821	     -7.62313895	    -63.59860276	      4.68404246	     -0.61268670	     10.64771870	      2.42985605	     -2.99088870	    -17.07103117	      7.94202719	      7.31259563	     -2.61216539	     -8.22187522	      2.75666132
      2.07000000	     -5.08453370	     -2.05072558	    106.91326019	     -0.70506652	      1.00511588	      0.24595438	     16.38316296	     -8.24518709	     -7.76990573	    -63.95714880	      4.81236638	     -0.54798508	     10.05728504	      2.20610835	     -3.47443399	    -16.81123501	      8.17232425	      7.21731716	     -2.84028940	     -8.01321154	      2.24418319
      2.08000000	     -4.92047089	     -1.97235564	    106.46564521	     -0.70738352	      1.00593345	      0.24006653	     17.64061288	     -7.88549240	     -8.09128323	    -64.12696236	      4.99992614	     -0.47100900	      9.42837612	      2.02841171	     -3.92845586	    -16.47462654	      8.40900022	      7.14228619	     -3.04466020	     -7.81796593	      1.70607144
      2.09000000	     -4.75938952	     -1.91136955	    106.05034999	     -0.70965768	      1.00667624	      0.23419047	     18.84619818	     -7.57468694	     -8.50910751	    -64.12575560	      5.22545507	     -0.38783951	      8.79934687	      1.86745072	     -4.35928549	    -16.10555808	      8.62938372	      7.07562982	     -3.22534472	     -7.62657920	      1.16005343
      2.10000000	     -4.59854758	     -1.86780121	    105.66390892	     -0.71193656	      1.00734081	      0.22832138	     19.99779389	     -7.32160711	     -9.01956480	    -63.95157425	      5.50821957	     -0.31296684	      8.17141573	      1.72231745	     -4.76834938	    -15.70654764	      8.85083932	      7.01504991	     -3.38323272	     -7.42464957	      0.61533064
      2.11000000	     -4.43508968	     -1.83884349	    105.29725693	     -0.71420789	      1.00792875	      0.22241484	     21.09061194	     -7.11901522	     -9.60786167	    -63.60456853	      5.83738314	     -0.25526991	      7.54443294	      1.58602516	     -5.15630331	    -15.28662645	      9.07022036	      6.96032060	     -3.51114402	     -7.21182713	      0.07613867
      2.12000000	     -4.24219099	     -1.81508445	    104.95487662	     -0.71647135	      1.00845088	      0.21649416	     22.11920037	     -6.93136625	    -10.27023215	    -63.07633718	      6.16498137	     -0.19325542	      6.92583312	      1.42855345	     -5.51734785	    -14.85953824	      9.31327299	      6.89183981	     -3.62160026	     -6.95174102	     -0.46147461
      2.13000000	     -4.06397241	     -1.80159637	    104.61623616	     -0.71871197	      1.00890257	      0.21054162	     23.08329281	     -6.79796705	    -10.97544061	    -62.38194160	      6.54375090	     -0.19910333	      6.30335127	      1.29450030	     -5.87874531	    -14.41602149	      9.53304703	      6.84059242	     -3.71972292	     -6.69762767	     -0.97754843
      2.14000000	     -3.88367536	     -1.79250941	    104.27724281	     -0.72090521	      1.00928658	      0.20455904	     23.98340911	     -6.68904991	    -11.71402888	    -61.52255292	      6.91169020	     -0.25022213	      5.67942952	      1.16297967	     -6.24475497	    -13.96323727	      9.74635967	      6.79571928	     -3.80949344	     -6.43244274	     -1.47053194
      2.15000000	     -3.70795463	     -1.78640311	    103.93135199	     -0.72302619	      1.00959950	      0.19854144	     24.81923246	     -6.60237575	    -12.47519545	    -60.50626863	      7.26085217	     -0.33417911	      5.05067537	      1.03867006	     -6.62393594	    -13.50044167	      9.94943210	      6.75682027	     -3.89355430	     -6.16642900	     -1.92781586
      2.16000000	     -3.54276707	     -1.77643941	    103.57550034	     -0.72504471	      1.00984884	      0.19249417	     25.58501369	     -6.52598565	    -13.23789072	    -59.33732210	      7.56579708	     -0.44814042	      4.40731516	      0.92551083	     -7.01400051	    -13.02436080	     10.13702114	      6.72421917	     -3.98267000	     -5.90816157	     -2.35723706
      2.17000000	     -3.39400847	     -1.77091917	    103.20822040	     -0.72695231	      1.01000631	      0.18641318	     26.29141312	     -6.46633012	    -14.00301824	    -58.02957127	      7.83631005	     -0.56418526	      3.75818550	      0.83082733	     -7.41571117	    -12.53871746	     10.31205154	      6.69780808	     -4.06586359	     -5.67002306	     -2.72575011
      2.18000000	     -3.26507829	     -1.76821347	    102.82761143	     -0.72873320	      1.01006565	      0.18030714	     26.93999667	     -6.41636024	    -14.75710327	    -56.58967150	      8.05553138	     -0.67107843	      3.10166466	      0.75791966	     -7.82223678	    -12.04523802	     10.47615318	      6.67528396	     -4.14502798	     -5.45507382	     -3.03845909
      2.19000000	     -3.15838732	     -1.76904907	    102.43505870	     -0.73037100	      1.01001783	      0.17417736	     27.53320954	     -6.37087455	    -15.49075530	    -55.02562665	      8.21797506	     -0.75863377	      2.44037006	      0.70912706	     -8.23036179	    -11.54785292	     10.63327863	      6.65427089	     -4.22238949	     -5.26933926	     -3.29781646
